# xmcd CD database file
#
# Track frame offsets:
#	150
#	14943
#	27521
#	42177
#	53957
#	69334
#	84984
#	105878
#	122061
#	133575
#	153251
#	168029
#	188667
#
# Disc length: 2800 seconds
#
# Revision: 0
# Processed by: cddbd v1.5.2PL0 Copyright (c) Steve Scherf et al.
# Submitted via: CDex 1.51
#
DISCID=9f0aee0d
DTITLE=Jim Lauderdale - Soul Searching Vol. 2 Nashville
DYEAR=2015
DGENRE=Country
TTITLE0=Jim Lauderdale - You Were Here
TTITLE1=Jim Lauderdale - There Was A Mermaid On The Rocks
TTITLE2=Jim Lauderdale - What Do I Know About Anything
TTITLE3=Jim Lauderdale - All At Once
TTITLE4=Jim Lauderdale - Black Widow Spider
TTITLE5=Jim Lauderdale - Signals From Space
TTITLE6=Jim Lauderdale - Why Does God Let That Happen
TTITLE7=Jim Lauderdale - Water Water Please Come Back
TTITLE8=Jim Lauderdale - Timing Is Everything
TTITLE9=Jim Lauderdale - Plan B
TTITLE10=Jim Lauderdale - One Big Company
TTITLE11=Jim Lauderdale - I'm Just The Lookout
TTITLE12=Jim Lauderdale - Tarzan Houdini
EXTD=YEAR: 2015
EXTT0=
EXTT1=
EXTT2=
EXTT3=
EXTT4=
EXTT5=
EXTT6=
EXTT7=
EXTT8=
EXTT9=
EXTT10=
EXTT11=
EXTT12=
PLAYORDER=
